<?xml version="1.0" encoding="UTF-8"?>
<svg xmlns="http://www.w3.org/2000/svg" xmlns:xlink="http://www.w3.org/1999/xlink" viewBox="0 0 728 513">
  <defs>
    <style>
      .cls-1 {
        fill: #fff;
      }

      .cls-2 {
        stroke: #000;
        stroke-miterlimit: 10;
      }
    </style>
    <image id="image" width="2048" height="2048" xlink:href="open-bracket_digital_art_x4.png"/>
  </defs>
  <g id="_Слой_2" data-name="Слой 2">
    <rect class="cls-2" x="107.5" y=".5" width="512" height="512"/>
  </g>
  <g id="bracket1">
    <text/>
    <use transform="translate(0 86) scale(.17)" xlink:href="#image"/>
  </g>
  <g id="bracket2">
    <use transform="translate(728 426) rotate(-180) scale(.17)" xlink:href="#image"/>
  </g>
  <g id="ear1">
    <path class="cls-1" d="M308.21,159.57l-67.96,57.03c-1.57,1.32-3.93,1.01-5.12-.66-14.42-20.19-11.08-48.4,8.24-64.62,19.33-16.22,47.69-14.6,65.07,3.1,1.44,1.46,1.33,3.84-.24,5.15Z"/>
  </g>
  <g id="ear2">
    <path class="cls-1" d="M420.37,159.9l67.96,57.03c1.57,1.32,3.93,1.01,5.12-.66,14.42-20.19,11.08-48.4-8.24-64.62s-47.69-14.6-65.07,3.1c-1.44,1.46-1.33,3.84,.24,5.15Z"/>
  </g>
  <g id="eye1">
    <path class="cls-1" d="M292.43,265.45l-65.22,54.73c-1.59,1.33-1.87,3.59-.6,4.93,21.52,22.58,59.57,22.9,86.7,.13,11.79-9.89,19.64-22.56,23.23-35.8,7.01-25.79-22.79-41.88-44.11-23.99Zm18.62,28.35c-6.08,0-11-4.92-11-11s4.92-11,11-11,11,4.92,11,11-4.92,11-11,11Z"/>
  </g>
  <g id="eye2">
    <path class="cls-1" d="M391.46,289.4c3.6,13.23,11.45,25.91,23.23,35.8,27.13,22.76,65.18,22.44,86.7-.13,1.27-1.34,.99-3.6-.6-4.93l-65.22-54.73c-21.32-17.89-51.12-1.8-44.11,23.99Zm14.49-6.64c0-6.08,4.92-11,11-11s11,4.92,11,11-4.92,11-11,11-11-4.92-11-11Z"/>
  </g>
  <g id="mouth">
    <path class="cls-1" d="M396,337h-64c0,17.67,14.33,32,32,32,17.67,0,32-14.33,32-32Z"/>
  </g>
</svg>